<svg xmlns="http://www.w3.org/2000/svg" viewBox="0 0 340 440" fill="none">
  <rect width="340" height="440" fill="#ffffff" rx="4"/>
  <!-- Accent bar -->
  <rect x="0" y="0" width="4" height="440" fill="#3b82f6"/>
  <!-- Name with color -->
  <rect x="24" y="25" width="180" height="16" rx="2" fill="#3b82f6"/>
  <rect x="24" y="47" width="120" height="8" rx="1" fill="#64748b"/>
  <!-- Contact pills -->
  <rect x="24" y="63" width="60" height="6" rx="3" fill="#dbeafe"/>
  <rect x="90" y="63" width="70" height="6" rx="3" fill="#dbeafe"/>
  <rect x="166" y="63" width="80" height="6" rx="3" fill="#dbeafe"/>
  <!-- Experience -->
  <rect x="24" y="85" width="80" height="8" rx="1" fill="#3b82f6"/>
  <rect x="24" y="99" width="150" height="7" rx="1" fill="#1e293b"/>
  <rect x="24" y="111" width="100" height="6" rx="1" fill="#3b82f6" opacity="0.6"/>
  <rect x="24" y="122" width="290" height="5" rx="1" fill="#cbd5e1"/>
  <rect x="24" y="132" width="270" height="5" rx="1" fill="#cbd5e1"/>
  <rect x="24" y="142" width="280" height="5" rx="1" fill="#cbd5e1"/>
  <rect x="24" y="157" width="140" height="7" rx="1" fill="#1e293b"/>
  <rect x="24" y="169" width="110" height="6" rx="1" fill="#3b82f6" opacity="0.6"/>
  <rect x="24" y="180" width="280" height="5" rx="1" fill="#cbd5e1"/>
  <rect x="24" y="190" width="260" height="5" rx="1" fill="#cbd5e1"/>
  <!-- Education -->
  <rect x="24" y="215" width="70" height="8" rx="1" fill="#3b82f6"/>
  <rect x="24" y="229" width="170" height="7" rx="1" fill="#1e293b"/>
  <rect x="24" y="241" width="200" height="5" rx="1" fill="#cbd5e1"/>
  <!-- Skills -->
  <rect x="24" y="265" width="40" height="8" rx="1" fill="#3b82f6"/>
  <rect x="24" y="279" width="50" height="18" rx="9" fill="#eff6ff" stroke="#3b82f6" stroke-width="1"/>
  <rect x="80" y="279" width="60" height="18" rx="9" fill="#eff6ff" stroke="#3b82f6" stroke-width="1"/>
  <rect x="146" y="279" width="55" height="18" rx="9" fill="#eff6ff" stroke="#3b82f6" stroke-width="1"/>
  <rect x="207" y="279" width="48" height="18" rx="9" fill="#eff6ff" stroke="#3b82f6" stroke-width="1"/>
  <rect x="24" y="303" width="58" height="18" rx="9" fill="#eff6ff" stroke="#3b82f6" stroke-width="1"/>
  <rect x="88" y="303" width="52" height="18" rx="9" fill="#eff6ff" stroke="#3b82f6" stroke-width="1"/>
</svg>
